<?xml version="1.0" encoding="iso-8859-1"?>
<!-- Generator: Adobe Illustrator 19.0.0, SVG Export Plug-In . SVG Version: 6.00 Build 0)  -->
<svg version="1.1" id="Capa_1" xmlns="http://www.w3.org/2000/svg" xmlns:xlink="http://www.w3.org/1999/xlink" x="0px" y="0px"
	 viewBox="0 0 384 384" style="enable-background:new 0 0 384 384;" xml:space="preserve">
<g>
	<g>
		<path d="M234.688,212.032L214.64,192l20.04-20.032c6.248-6.248,6.248-16.384,0-22.632c-6.248-6.24-16.376-6.248-22.632-0.008
			L192,169.376l-20.056-20.048c-6.256-6.24-16.384-6.232-22.632,0.008c-6.248,6.248-6.248,16.384,0,22.632L169.36,192l-20.04,20.032
			c-6.248,6.248-6.248,16.384,0,22.632c3.128,3.128,7.216,4.688,11.32,4.688c4.096,0,8.184-1.56,11.312-4.68L192,214.624
			l20.056,20.048c3.128,3.12,7.216,4.68,11.312,4.68s8.192-1.56,11.32-4.688C240.936,228.416,240.936,218.28,234.688,212.032z"/>
	</g>
</g>
<g>
	<g>
		<path d="M373.776,212.032L353.712,192l20.048-20.032c6.248-6.248,6.248-16.384,0-22.632c-6.248-6.24-16.376-6.248-22.632-0.008
			l-20.056,20.048l-20.064-20.048c-6.248-6.24-16.384-6.232-22.624,0.008c-6.248,6.248-6.24,16.384,0.008,22.632L308.44,192
			l-20.04,20.032c-6.248,6.248-6.256,16.384-0.008,22.632c3.128,3.128,7.216,4.688,11.32,4.688c4.096,0,8.184-1.56,11.312-4.68
			l20.064-20.048l20.056,20.048c3.128,3.12,7.216,4.68,11.312,4.68s8.192-1.56,11.32-4.688
			C380.024,228.416,380.024,218.28,373.776,212.032z"/>
	</g>
</g>
<g>
	<g>
		<path d="M53.136,138.976c-29.24,0-53.032,23.784-53.032,53.016c0,29.24,23.792,53.032,53.032,53.032
			c29.248,0,53.04-23.792,53.04-53.032C106.176,162.76,82.384,138.976,53.136,138.976z M53.136,213.024
			c-11.6,0-21.032-9.44-21.032-21.032c0-11.584,9.432-21.016,21.032-21.016c11.6,0,21.04,9.432,21.04,21.016
			C74.176,203.584,64.736,213.024,53.136,213.024z"/>
	</g>
</g>
<g>
	<g>
		<path d="M95.72,351l-20.04-20.024l20.04-20.032c6.24-6.24,6.24-16.376-0.008-22.624c-6.248-6.248-16.376-6.248-22.632,0
			l-20.048,20.04l-20.056-20.048c-6.248-6.232-16.376-6.24-22.624,0.008s-6.24,16.384,0.008,22.632l20.04,20.024L10.36,351
			c-6.248,6.24-6.256,16.376-0.008,22.624c3.128,3.136,7.224,4.696,11.32,4.696c4.088,0,8.184-1.56,11.312-4.68L53.04,353.6
			l20.056,20.04c3.12,3.12,7.216,4.68,11.312,4.68c4.096,0,8.192-1.56,11.32-4.688C101.976,367.384,101.968,357.248,95.72,351z"/>
	</g>
</g>
<g>
	<g>
		<path d="M353.616,51.16l20.04-20.032c6.248-6.248,6.256-16.384,0.008-22.632c-6.248-6.248-16.376-6.24-22.624-0.008
			l-20.064,20.048L310.92,8.496c-6.248-6.248-16.376-6.248-22.632,0c-6.248,6.248-6.248,16.384,0,22.624l20.04,20.032l-20.04,20.032
			c-6.248,6.248-6.248,16.376,0,22.632c3.128,3.128,7.216,4.688,11.32,4.688c4.096,0,8.184-1.56,11.312-4.68l20.056-20.048
			l20.056,20.048c3.128,3.12,7.216,4.68,11.312,4.68s8.192-1.56,11.32-4.696c6.248-6.248,6.24-16.376-0.008-22.624L353.616,51.16z"
			/>
	</g>
</g>
<g>
	<g>
		<path d="M191.888,0c-29.248,0-53.04,23.784-53.04,53.008c0,29.24,23.792,53.032,53.04,53.032c29.248,0,53.04-23.792,53.04-53.032
			C244.928,23.784,221.136,0,191.888,0z M191.888,74.04c-11.6,0-21.04-9.44-21.04-21.032c0-11.584,9.44-21.008,21.04-21.008
			c11.6,0,21.04,9.424,21.04,21.008C212.928,64.6,203.496,74.04,191.888,74.04z"/>
	</g>
</g>
<g>
	<g>
		<path d="M53.032,0C23.792,0,0,23.784,0,53.008c0,29.24,23.792,53.032,53.032,53.032c29.248,0,53.04-23.792,53.04-53.032
			C106.072,23.784,82.28,0,53.032,0z M53.032,74.04C41.432,74.04,32,64.6,32,53.008C32,41.424,41.44,32,53.032,32
			c11.6,0,21.04,9.424,21.04,21.008C74.072,64.6,64.632,74.04,53.032,74.04z"/>
	</g>
</g>
<g>
	<g>
		<path d="M191.888,277.96c-29.248,0-53.04,23.792-53.04,53.032c0,29.224,23.792,53.008,53.04,53.008
			c29.248,0,53.04-23.784,53.04-53.008C244.928,301.752,221.136,277.96,191.888,277.96z M191.888,352
			c-11.6,0-21.04-9.424-21.04-21.008c0-11.592,9.44-21.032,21.04-21.032c11.6,0,21.04,9.44,21.04,21.032
			C212.928,342.576,203.496,352,191.888,352z"/>
	</g>
</g>
<g>
	<g>
		<path d="M330.96,277.96c-29.248,0-53.04,23.792-53.04,53.032c0,29.224,23.792,53.008,53.04,53.008
			c29.248,0,53.04-23.784,53.04-53.008C384,301.752,360.208,277.96,330.96,277.96z M330.96,352c-11.6,0-21.04-9.424-21.04-21.008
			c0-11.592,9.44-21.032,21.04-21.032c11.6,0,21.04,9.44,21.04,21.032C352,342.576,342.56,352,330.96,352z"/>
	</g>
</g>
<g>
</g>
<g>
</g>
<g>
</g>
<g>
</g>
<g>
</g>
<g>
</g>
<g>
</g>
<g>
</g>
<g>
</g>
<g>
</g>
<g>
</g>
<g>
</g>
<g>
</g>
<g>
</g>
<g>
</g>
</svg>
